<svg xmlns="http://www.w3.org/2000/svg" xmlns:xlink="http://www.w3.org/1999/xlink" width="500" zoomAndPan="magnify" viewBox="0 0 375 374.999991" height="500" preserveAspectRatio="xMidYMid meet" version="1.0"><defs><clipPath id="970c6ce0bb"><path d="M 58.59375 0 L 316.40625 0 C 348.765625 0 375 26.234375 375 58.59375 L 375 316.40625 C 375 348.765625 348.765625 375 316.40625 375 L 58.59375 375 C 26.234375 375 0 348.765625 0 316.40625 L 0 58.59375 C 0 26.234375 26.234375 0 58.59375 0 " clip-rule="nonzero"/></clipPath><clipPath id="e3627b4c5e"><path d="M 19.710938 20.320312 L 354.960938 20.320312 L 354.960938 354.820312 L 19.710938 354.820312 Z M 19.710938 20.320312 " clip-rule="nonzero"/></clipPath></defs><g clip-path="url(#970c6ce0bb)"><rect x="-37.5" width="450" fill="#ffdd00" y="-37.499999" height="449.999989" fill-opacity="1"/></g><g clip-path="url(#e3627b4c5e)"><path fill="#000000" d="M 178.269531 20.753906 C 231.234375 16.832031 274.652344 40.183594 301.394531 65.335938 C 329.527344 91.792969 352.71875 127.929688 354.734375 179.804688 C 356.714844 230.5625 337.804688 272.886719 311.421875 301.101562 C 284.21875 330.1875 246.824219 351.707031 197.117188 354.519531 C 144.523438 357.492188 102.804688 338 73.988281 311.542969 C 59.78125 298.496094 47.433594 282.582031 37.890625 263.746094 C 28.832031 245.863281 20.300781 221.917969 19.84375 197.878906 C 19.300781 169.371094 23.355469 147.117188 31.476562 126.382812 C 39.648438 105.511719 50.589844 90.597656 63.960938 74.972656 C 76.285156 60.578125 92.644531 47.851562 111.289062 38.421875 C 129.476562 29.230469 153.347656 22.601562 178.269531 20.753906 Z M 135.351562 52.886719 C 161.351562 58.179688 176.867188 73.96875 187.894531 94.257812 C 189.335938 92.21875 189.800781 89.203125 192.304688 88.230469 C 196.398438 76.214844 209.355469 65.402344 220.78125 59.3125 C 227.25 55.867188 233.632812 54.410156 240.03125 52.886719 C 214.410156 38.554688 160.890625 38.519531 135.351562 52.886719 Z M 97.648438 70.15625 C 82.898438 70.308594 69.097656 83.039062 69.570312 99.074219 C 70.105469 116.832031 83.0625 126.375 102.460938 126.386719 C 77.667969 134.5 79.964844 173.015625 103.664062 180.207031 C 134.285156 189.5 150.222656 152.488281 134.542969 134.421875 C 156.835938 154.054688 192.972656 126.289062 178.261719 99.476562 C 174.960938 93.460938 168.519531 90.375 163.421875 86.222656 C 148.085938 82.101562 131.160156 90.125 125.722656 103.089844 C 127.234375 83.21875 114.5 69.984375 97.648438 70.15625 Z M 305.402344 96.261719 C 304.496094 85.738281 295.992188 75.613281 287.359375 72.164062 C 266.886719 63.988281 247.40625 81.03125 248.453125 102.6875 C 238.46875 74.566406 189.667969 82.851562 194.308594 117.148438 C 195.863281 128.605469 205.621094 139.96875 219.578125 140.84375 C 228.835938 141.421875 234.613281 137.785156 240.03125 135.222656 C 226.109375 153.621094 238.796875 180.320312 260.484375 181.410156 C 269.625 181.871094 275.640625 177.765625 282.144531 174.179688 C 296.332031 160.925781 290.5 130.367188 271.71875 125.980469 C 290.886719 128.179688 306.992188 114.617188 305.402344 96.261719 Z M 51.929688 240.453125 C 57.757812 214.695312 72.382812 197.746094 93.640625 187.433594 C 72.070312 177.304688 57.695312 159.972656 51.527344 134.417969 C 38.609375 163.605469 37.839844 212.992188 51.929688 240.453125 Z M 281.742188 187.835938 C 302.828125 198.179688 316.933594 215.515625 323.453125 240.449219 C 336.835938 212.230469 337.015625 161.824219 323.050781 134.816406 C 317.554688 160.777344 302.378906 177.039062 281.742188 187.835938 Z M 150.992188 187.835938 C 167.699219 195.605469 179.414062 208.375 187.890625 224.386719 C 195.5625 207.703125 208.542969 196.335938 223.988281 187.433594 C 207.800781 179.277344 195.804688 166.921875 187.488281 150.882812 C 179.554688 167.441406 166.984375 179.351562 150.992188 187.835938 Z M 141.363281 222.378906 C 141.015625 182.726562 78.105469 186.398438 84.414062 226.796875 C 86.03125 237.171875 94.207031 244.898438 101.257812 248.886719 C 73.058594 245.824219 59.308594 281.789062 78.796875 299.089844 C 96.40625 314.722656 129.828125 301.59375 126.121094 273.386719 C 129.421875 277.898438 131.191406 281.675781 134.542969 284.632812 C 152.753906 300.695312 182.410156 285.257812 181.46875 260.9375 C 180.59375 238.320312 153.816406 227.511719 135.34375 239.648438 C 137.988281 233.726562 141.433594 229.550781 141.363281 222.378906 Z M 290.566406 220.769531 C 288.851562 185.097656 234.582031 186.332031 234.015625 221.574219 C 233.886719 229.628906 236.585938 233.855469 239.628906 240.050781 C 233.394531 236.476562 226.335938 232.660156 216.769531 234.429688 C 195.082031 238.4375 187.398438 266.375 201.128906 281.824219 C 214.894531 297.316406 243.160156 291.324219 248.855469 272.984375 C 248.226562 293.1875 259.199219 305.230469 275.722656 305.921875 C 294.992188 306.730469 312.089844 286.855469 302.996094 265.757812 C 298.550781 255.441406 287.707031 248.398438 272.515625 249.292969 C 282.238281 243.347656 291.3125 236.316406 290.566406 220.769531 Z M 188.292969 282.628906 C 187.894531 282.628906 187.492188 282.628906 187.089844 282.628906 C 176.933594 303.648438 159.734375 317.621094 134.949219 323.996094 C 161.757812 337.191406 213.804688 337.445312 240.03125 323.59375 C 215.042969 317.6875 198.234375 303.59375 188.292969 282.628906 Z M 188.292969 282.628906 " fill-opacity="1" fill-rule="evenodd"/></g></svg>